<?xml version="1.0" encoding="utf-8"?>
<!-- Generator: Adobe Illustrator 21.1.0, SVG Export Plug-In . SVG Version: 6.00 Build 0)  -->
<svg version="1.1" id="レイヤー_1" xmlns="http://www.w3.org/2000/svg" xmlns:xlink="http://www.w3.org/1999/xlink" x="0px"
	 y="0px" viewBox="0 0 86.3 86.3" style="enable-background:new 0 0 86.3 86.3;" xml:space="preserve">
<style type="text/css">
	.st0{fill:#1E4A99;}
</style>
<title>ic_cpui7</title>
<g>
	<path class="st0" d="M82.1,0h-78C1.8,0,0,1.9,0,4.2v78c0,2.3,1.9,4.2,4.2,4.2h78c2.3,0,4.2-1.9,4.2-4.2v-78C86.3,1.9,84.4,0,82.1,0
		z M5.9,56V30.3l6.3-2.9V14.1c0-1.3,1.1-2.5,2.5-2.5h57c1.4,0,2.5,1.1,2.5,2.5v13.3l6.3,2.9V56l-6.3,2.9v13.3c0,1.3-1.1,2.5-2.5,2.5
		h-57c-1.4,0-2.5-1.1-2.5-2.5V58.9L5.9,56z M5.6,4.1c0.9,0,1.6,0.7,1.6,1.6c0,0.9-0.7,1.6-1.6,1.6C4.7,7.3,4,6.6,4,5.7
		C4,4.8,4.7,4.1,5.6,4.1z M5.6,79c0.9,0,1.6,0.7,1.6,1.6c0,0.9-0.7,1.6-1.6,1.6c-0.9,0-1.6-0.7-1.6-1.6C4,79.7,4.7,79,5.6,79z
		 M80.6,82.2c-0.9,0-1.6-0.7-1.6-1.6c0-0.9,0.7-1.6,1.6-1.6s1.6,0.7,1.6,1.6C82.2,81.5,81.5,82.2,80.6,82.2z M80.6,7.3
		c-0.9,0-1.6-0.7-1.6-1.6c0-0.9,0.7-1.6,1.6-1.6s1.6,0.7,1.6,1.6C82.2,6.6,81.5,7.3,80.6,7.3z"/>
	<g>
		<path class="st0" d="M64.9,29.1H21.3c-1.1,0-2,0.9-2,2v24.6c0,1.1,0.9,2,2,2h43.6c1.1,0,2-0.9,2-2V31.1
			C66.9,29.9,66,29.1,64.9,29.1z M36.1,46c-0.3,1.5-0.9,2.6-1.8,3.4c-1,0.8-2.1,1.1-3.4,1.1c-0.8,0-1.6-0.1-2.2-0.4
			C28,49.9,27.5,49.5,27,49c-0.4-0.4-0.7-0.8-0.8-1.2c-0.2-0.4-0.3-0.8-0.4-1.3c-0.1-0.4-0.1-0.9-0.2-1.5c0-0.5,0-1.1,0-1.7
			c0-0.6,0-1.2,0-1.7c0-0.5,0.1-1,0.2-1.5c0.1-0.5,0.2-0.9,0.4-1.3c0.2-0.4,0.5-0.8,0.8-1.2c0.5-0.5,1.1-0.9,1.7-1.1
			c0.6-0.3,1.4-0.4,2.2-0.4c1.3,0,2.5,0.4,3.4,1.1c0.9,0.8,1.6,1.9,1.8,3.4l0.1,0.4l0,0h-3.5l-0.1-0.3c-0.1-0.5-0.3-0.9-0.6-1.2
			c-0.3-0.3-0.7-0.4-1.2-0.4c-0.3,0-0.6,0.1-0.8,0.2c-0.2,0.1-0.4,0.2-0.6,0.4c-0.1,0.1-0.2,0.2-0.2,0.4c-0.1,0.1-0.1,0.3-0.2,0.6
			c0,0.3-0.1,0.6-0.1,1c0,0.4,0,0.9,0,1.6c0,0.6,0,1.1,0,1.6c0,0.4,0.1,0.7,0.1,1c0.1,0.2,0.1,0.4,0.2,0.6c0.1,0.1,0.1,0.3,0.2,0.4
			c0.2,0.2,0.3,0.3,0.6,0.4c0.2,0.1,0.5,0.1,0.8,0.1c0.5,0,0.9-0.1,1.2-0.4c0.3-0.3,0.5-0.7,0.6-1.2l0.1-0.3h3l0.5,0L36.1,46z
			 M48.2,42.6c-0.2,0.5-0.5,1-0.9,1.4c-0.4,0.4-0.9,0.7-1.4,0.9c-0.6,0.2-1.2,0.3-1.9,0.3h-2v4.8h-3.2V36.7H44
			c0.7,0,1.3,0.1,1.9,0.3c0.6,0.2,1.1,0.6,1.4,0.9c0.4,0.4,0.7,0.9,0.9,1.4c0.2,0.5,0.3,1.1,0.3,1.7C48.6,41.5,48.5,42.1,48.2,42.6z
			 M60.7,45.3c0,0.7-0.1,1.4-0.4,2c-0.3,0.6-0.6,1.1-1.1,1.5c-0.5,0.4-1,0.8-1.6,1c-0.6,0.2-1.3,0.3-2,0.3c-0.7,0-1.3-0.1-2-0.3
			c-0.6-0.2-1.1-0.6-1.6-1c-0.5-0.4-0.8-0.9-1.1-1.5c-0.3-0.6-0.4-1.3-0.4-2v-8.7h3.3v8.6c0,0.6,0.1,1.1,0.5,1.4
			c0.3,0.3,0.7,0.5,1.3,0.5c0.6,0,1-0.2,1.3-0.5c0.3-0.3,0.5-0.8,0.5-1.4v-8.6h3.2V45.3z"/>
		<path class="st0" d="M43.9,39.2h-2.3h0h0v3.5h2.3c0.6,0,1-0.2,1.3-0.5c0.3-0.3,0.5-0.7,0.5-1.3c0-0.5-0.1-0.9-0.5-1.3
			C44.9,39.4,44.5,39.2,43.9,39.2z"/>
	</g>
</g>
</svg>
