<svg xmlns="http://www.w3.org/2000/svg" viewBox="0 0 119.57 75.87"><defs><style>.cls-1{fill:#1e4a99;}.cls-2{fill:#fff;}</style></defs><title>ic_</title><g id="レイヤー_2" data-name="レイヤー 2"><g id="デザイン"><path class="cls-1" d="M102.65,53.6H41.75V13.09a.83.83,0,0,0-.83-.83H11a.83.83,0,0,0-.77.52L.06,38.54a.82.82,0,0,0-.06.3V64.17a.93.93,0,0,0,.93.93H9.68a11.81,11.81,0,0,1,20.79-4.86,11.68,11.68,0,0,1,2.31,4.86H77a11.82,11.82,0,0,1,23.1,0h10.09l9.39-4.87V53.6H102.65ZM8.28,37l6.79-17.14a.83.83,0,0,1,.77-.52h18a.83.83,0,0,1,.83.83V37.31a.83.83,0,0,1-.83.83H9A.83.83,0,0,1,8.28,37Z"/><rect class="cls-1" x="47.37" width="72.2" height="47.89" rx="0.63" ry="0.63"/><path class="cls-1" d="M88.54,59.31a8.27,8.27,0,1,0,7.89,5.79A8.29,8.29,0,0,0,88.54,59.31Z"/><path class="cls-1" d="M25,60.24a8.22,8.22,0,0,0-7.58,0,8.28,8.28,0,1,0,7.58,0Z"/><path class="cls-2" d="M72.12,30.2h7.4v2.14h-17V30.2h7.14V27.82H64.1V25.74h5.54v-2.3H65.12V21.86a25.7,25.7,0,0,1-2.22,1.38,8.77,8.77,0,0,0-1.5-1.92,21.84,21.84,0,0,0,8.12-7.24H72a21.14,21.14,0,0,0,8.56,7A11.59,11.59,0,0,0,79,23.22c-.72-.4-1.44-.84-2.16-1.34v1.56H72.12v2.3h5.6v2.08h-5.6ZM76,21.34a24.1,24.1,0,0,1-5.16-5,23.05,23.05,0,0,1-5,5Z"/><path class="cls-2" d="M103.86,14.92v17.9h-2.54v-1H89.48v1H87.06V14.92Zm-2.54,14.7V17.1H89.48V29.62Zm-.7-3.1v1.94H90.26V26.52h4V24.16H91v-2h3.3V20.28h-3.8V18.2h9.82v2.08H96.48v1.88h3.38v2h-1.1a15.48,15.48,0,0,1,1.5,1.78l-1,.58Zm-4.14,0h2a15.18,15.18,0,0,0-1.36-1.74l1.22-.62H96.48Z"/></g></g></svg>