<svg xmlns="http://www.w3.org/2000/svg" viewBox="0 0 81.33 81.33"><defs><style>.cls-1{fill:#1e4a99;}</style></defs><title>ic_dat</title><g id="レイヤー_2" data-name="レイヤー 2"><g id="デザイン"><path class="cls-1" d="M62.09,0H19.23A19.25,19.25,0,0,0,0,19.23V62.09A19.26,19.26,0,0,0,19.23,81.33H62.09A19.26,19.26,0,0,0,81.33,62.09V19.23A19.25,19.25,0,0,0,62.09,0ZM5.73,19.23A13.55,13.55,0,0,1,19.23,5.73H62.09A13.54,13.54,0,0,1,75.6,19.23V62.09A13.54,13.54,0,0,1,62.09,75.6H19.23A13.55,13.55,0,0,1,5.73,62.09Z"/><path class="cls-1" d="M17.24,37.29c-1.6.76-3.3,1.52-4.7,2.14l-1-2c1.32-.42,3.34-1.16,5.28-1.88Zm12.64,9.12v2.06H11.69V46.41h5a15,15,0,0,0-1-3L17.2,43h-4v-2h6.34V39.39a1.38,1.38,0,0,1-.54.46,6.63,6.63,0,0,1-2.76.34,7.66,7.66,0,0,0-.6-2,16.93,16.93,0,0,0,1.7,0c.24,0,.3-.06.3-.24v-5.1H14.62a10.07,10.07,0,0,1,1.8,2l-1.66,1.2a10.3,10.3,0,0,0-2-2.38l1.28-.84h-2v-2h7.74V38a2.76,2.76,0,0,1-.22,1.32H21.9v1.66h6.56v2H25l1.36.3c-.56,1.12-1.12,2.3-1.6,3.14ZM18,43a13,13,0,0,1,1.12,3.18l-.9.26h5.24l-1-.26A17.44,17.44,0,0,0,23.72,43Zm8.22-5.9c-1.56.78-3.24,1.56-4.62,2.2l-1.06-2c1.32-.42,3.34-1.18,5.28-1.92Zm-3.62-4.24H21v-2h7.9V38c0,1-.16,1.54-.82,1.9a6.82,6.82,0,0,1-2.74.34,7,7,0,0,0-.6-2,16.15,16.15,0,0,0,1.66,0c.24,0,.32-.06.32-.26V32.83h-3.3a11.57,11.57,0,0,1,1.78,1.84L23.54,36a12.31,12.31,0,0,0-2.08-2.36Z"/><path class="cls-1" d="M48,35.85a34.57,34.57,0,0,1-4,7.68,15.66,15.66,0,0,1,2.38,1.84l-1.66,2.28a28.47,28.47,0,0,0-7.54-4.94l1.48-2c1,.42,2.06.94,3.12,1.5a27.26,27.26,0,0,0,2.72-4.86H38.78a22.29,22.29,0,0,1-4.2,5.94A14.45,14.45,0,0,0,32.27,42c3-2.66,5.18-7.2,6.18-10.82l2.66.6c-.36,1.06-.76,2.14-1.24,3.24h5.88l.44-.1Z"/><path class="cls-1" d="M67.42,31.37v17.2H64.86V47.31H56v1.3H53.52V31.37ZM56,33.77v4.3h8.88v-4.3Zm8.88,11.14V40.43H56v4.48Z"/></g></g></svg>