<svg xmlns="http://www.w3.org/2000/svg" viewBox="0 0 28.57 58.64"><defs><style>.cls-1{fill:#1e4a99;}</style></defs><title>ic_desktop</title><g id="レイヤー_2" data-name="レイヤー 2"><g id="デザイン"><path class="cls-1" d="M24.24,0H4.32A4.33,4.33,0,0,0,0,4.32v50a4.33,4.33,0,0,0,4.32,4.32H24.24a4.33,4.33,0,0,0,4.32-4.32v-50A4.33,4.33,0,0,0,24.24,0Zm-.19,54.13H4.51V28.19H24.06Zm0-29.32H4.51V4.51H24.06Z"/><path class="cls-1" d="M14.28,44.35a5.64,5.64,0,1,0-5.64-5.64A5.64,5.64,0,0,0,14.28,44.35Zm0-8.27a2.63,2.63,0,1,1-2.63,2.63A2.63,2.63,0,0,1,14.28,36.08Z"/><rect class="cls-1" x="8.27" y="9.77" width="12.03" height="3.38"/><rect class="cls-1" x="8.27" y="15.41" width="12.03" height="3.38"/></g></g></svg>