<svg xmlns="http://www.w3.org/2000/svg" viewBox="0 0 72.46 68.25"><defs><style>.cls-1{fill:#1e4a99;}</style></defs><title>ic_engineer</title><g id="レイヤー_2" data-name="レイヤー 2"><g id="デザイン"><path class="cls-1" d="M6.82,14.28l3.45,1L23.62,28.67,20.24,32l0,0h0l0,0,2.64,2.6.1,0L34.64,23l0-.1L32,20.34l-3.41,3.41L15.06,10.24l-1-3.38a5.36,5.36,0,0,0-2.89-2.92L4,0,0,4l3.93,7.37A5.45,5.45,0,0,0,6.82,14.28Z"/><path class="cls-1" d="M49.5,37.86l0,0h0l0,0L46.8,40.45h0l0,0L60.92,54.61l.07.07-2,2L44.81,42.54l0,0h0l0,0-2.34,2.34h0l0,0,14.2,14.2-2,2L40.37,46.88l-2.67,2.67L55,66.87c1.6,1.6,3.95,1.83,5.26.53l7-7c1.3-1.3,1.07-3.66-.53-5.26Z"/><path class="cls-1" d="M48.33,32.89A4,4,0,0,1,52.47,32c3.37,1.18,9.66,2.69,13.19-.84,3.33-3.33,5.83-9.48,6.79-15.39a1.48,1.48,0,0,0-2.51-1.28l-7.82,7.82a2.86,2.86,0,0,1-4,0L50.2,14.38a2.86,2.86,0,0,1,0-4L58,2.53A1.48,1.48,0,0,0,56.75,0c-5.91,1-12.07,3.46-15.4,6.79-3.53,3.53-2,9.82-.84,13.19a4,4,0,0,1-.94,4.14l-25.3,25.3A9.42,9.42,0,1,0,23,58.19ZM11.27,56.46a3.35,3.35,0,1,1,0,4.73A3.34,3.34,0,0,1,11.27,56.46Z"/></g></g></svg>