<svg xmlns="http://www.w3.org/2000/svg" viewBox="0 0 52.83 49.75"><defs><style>.cls-1{fill:#fff;}</style></defs><title>ic_engineer_white</title><g id="レイヤー_2" data-name="レイヤー 2"><g id="デザイン"><path class="cls-1" d="M5,10.41l2.52.74,9.72,9.76-2.46,2.46,0,0h0l1.92,1.9.07,0,8.53-8.53,0-.07-1.92-1.9-2.49,2.49L11,7.46,10.26,5A3.9,3.9,0,0,0,8.15,2.87L2.89,0,0,2.9,2.87,8.27A4,4,0,0,0,5,10.41Z"/><path class="cls-1" d="M36.09,27.6l0,0h0l-1.93,1.93h0l10.3,10.31.05.05L43,41.33,32.67,31l0,0h0l-1.71,1.71h0L41.26,43.06l-1.47,1.47L29.43,34.17l-1.94,1.94L40.12,48.75a2.75,2.75,0,0,0,3.83.39L49.07,44a2.75,2.75,0,0,0-.39-3.83Z"/><path class="cls-1" d="M35.23,24a2.9,2.9,0,0,1,3-.69c2.46.86,7,2,9.62-.61s4.25-6.91,4.95-11.22A1.08,1.08,0,0,0,51,10.53l-5.7,5.7a2.09,2.09,0,0,1-2.94,0L36.6,10.48a2.09,2.09,0,0,1,0-2.94l5.7-5.7A1.08,1.08,0,0,0,41.37,0C37.06.71,32.57,2.54,30.14,5s-1.47,7.16-.61,9.62a2.9,2.9,0,0,1-.69,3L10.4,36a6.87,6.87,0,1,0,6.39,6.39Zm-27,17.18a2.44,2.44,0,1,1,0,3.45A2.44,2.44,0,0,1,8.21,41.16Z"/></g></g></svg>