<svg xmlns="http://www.w3.org/2000/svg" viewBox="0 0 60.83 53.45"><defs><style>.cls-1{fill:none;}.cls-2{fill:#fff;}</style></defs><title>ic_heart_white</title><g id="レイヤー_2" data-name="レイヤー 2"><g id="デザイン"><path class="cls-1" d="M20.9,7.85l-.18-.11-.06,0a10.58,10.58,0,0,0-6.1-1.63c-3,.22-6.28,2.43-7.79,6.49-1.24,3.32-.82,6.93,1.17,10.61.27-.72.58-1.41.9-2.09A27.33,27.33,0,0,1,21.39,8.15Z"/><path class="cls-2" d="M59.73,10.4C57.46,4.37,51.8,0,46.26,0h0C37.87,0,32.44,5.71,30.62,7.87l-.24.28C28.88,6.24,23.33,0,14.61,0h0C9,0,3.37,4.37,1.09,10.4c-3.07,8.13.39,17.33,9.47,25.23,2.29,2,4.62,3.91,6.87,5.77C23,46,27.81,50,29.56,52.94a1,1,0,0,0,1.71,0C33,50,37.83,46,43.4,41.41c2.25-1.86,4.58-3.78,6.87-5.77C59.35,27.73,62.8,18.54,59.73,10.4ZM15.37,12.26a27.38,27.38,0,0,0-6.53,8.83c-.32.68-.63,1.38-.9,2.09-2-3.67-2.41-7.29-1.17-10.61,1.52-4.06,4.77-6.27,7.79-6.49a10.58,10.58,0,0,1,6.1,1.63l.06,0,.18.11.49.31A27.4,27.4,0,0,0,15.37,12.26ZM41,15.77l-2.4,3.09L34.71,24l1.74,0h3v3.4h-6.7v1.27h6.7v3.4h-6.7v5.7H28.12v-5.7h-6.7v0h0V28.66h6.7V27.38h-6.7v0h0V24H26.1l-2.35-3.12-3.94-5.15h.06l0,0,2.22,0h3.61l4.73,6.18,1-1.26,3.77-4.92H41l0,0Z"/></g></g></svg>