<svg xmlns="http://www.w3.org/2000/svg" viewBox="0 0 85.18 74.85"><defs><style>.cls-1{fill:none;}.cls-2{fill:#1e4a99;}</style></defs><title>ic_heart</title><g id="レイヤー_2" data-name="レイヤー 2"><g id="デザイン"><path class="cls-1" d="M29.27,11,29,10.84l-.08,0A14.82,14.82,0,0,0,20.4,8.52c-4.23.31-8.79,3.41-10.92,9.09-1.74,4.65-1.15,9.71,1.64,14.85.38-1,.81-2,1.26-2.93A38.28,38.28,0,0,1,30,11.42Z"/><path class="cls-1" d="M29.27,11,29,10.84l-.08,0A14.82,14.82,0,0,0,20.4,8.52c-4.23.31-8.79,3.41-10.92,9.09-1.74,4.65-1.15,9.71,1.64,14.85.38-1,.81-2,1.26-2.93A38.28,38.28,0,0,1,30,11.42Z"/><polygon class="cls-1" points="49.23 22.02 43.95 28.9 42.58 30.67 35.96 22.02 30.9 22.02 27.79 21.98 27.82 22.02 27.74 22.02 33.26 29.23 36.56 33.59 30 33.59 30 38.27 30 38.29 30 38.35 39.38 38.35 39.38 40.13 30 40.13 30 44.81 30 44.83 30 44.89 39.38 44.89 39.38 52.87 45.8 52.87 45.8 44.89 55.1 44.89 55.13 44.89 55.13 44.89 55.19 44.89 55.19 40.13 45.8 40.13 45.8 38.35 55.19 38.35 55.19 33.59 51.04 33.59 48.61 33.55 54.08 26.41 57.45 22.08 57.4 22.08 57.45 22.02 49.23 22.02"/><path class="cls-2" d="M83.65,14.57C80.47,6.12,72.54,0,64.78,0h-.07C53,0,45.43,8,42.88,11l-.34.39C40.44,8.74,32.67.05,20.47,0h-.05C12.64,0,4.72,6.12,1.53,14.57-2.77,26,2.08,38.84,14.79,49.91,18,52.7,21.27,55.39,24.41,58c7.8,6.46,14.53,12,17,16.14a1.37,1.37,0,0,0,2.4,0C46.24,70,53,64.46,60.77,58c3.14-2.61,6.41-5.29,9.62-8.08C83.11,38.84,87.95,26,83.65,14.57ZM21.53,17.16a38.34,38.34,0,0,0-9.14,12.36c-.45,1-.88,1.93-1.26,2.93-2.8-5.14-3.38-10.21-1.64-14.85,2.12-5.69,6.68-8.78,10.92-9.09a14.82,14.82,0,0,1,8.54,2.28l.08,0,.25.15.68.43A38.37,38.37,0,0,0,21.53,17.16Zm35.92,4.91-3.37,4.33-5.47,7.14,2.43,0h4.15v4.76H45.8v1.78h9.39v4.76H45.8v8H39.38v-8H30v-.06h0V40.13h9.38V38.35H30v-.06h0V33.59h6.56l-3.3-4.37L27.74,22h.08l0,0,3.11,0H36l6.62,8.65L44,28.9,49.23,22h8.22l0,.06Z"/></g></g></svg>