<svg xmlns="http://www.w3.org/2000/svg" viewBox="0 0 99.33 99.33"><defs><style>.cls-1{fill:#1e4a99;}.cls-2{fill:none;stroke:#e55487;stroke-miterlimit:10;stroke-width:4px;}</style></defs><title>ic_iyakukin</title><g id="レイヤー_2" data-name="レイヤー 2"><g id="デザイン"><path class="cls-1" d="M71.09,9H28.24A19.25,19.25,0,0,0,9,28.24V71.09A19.26,19.26,0,0,0,28.24,90.33H71.09A19.26,19.26,0,0,0,90.33,71.09V28.24A19.25,19.25,0,0,0,71.09,9ZM14.73,28.24A13.55,13.55,0,0,1,28.24,14.73H71.09A13.54,13.54,0,0,1,84.6,28.24V71.09A13.54,13.54,0,0,1,71.09,84.6H28.24A13.55,13.55,0,0,1,14.73,71.09Z"/><path class="cls-1" d="M24.91,53.32c.78,1.34,2.18,1.9,4.22,2,2.4.1,7.12,0,9.88-.18a10.85,10.85,0,0,0-.74,2.32c-2.48.12-6.72.16-9.16.06s-4-.68-5.18-2.22c-.8.78-1.62,1.54-2.64,2.4l-1.12-2.36a23.94,23.94,0,0,0,2.48-1.84V49.11H20.41V46.93h4.5Zm-1.72-9A14.59,14.59,0,0,0,20.45,41l1.86-1.3a15,15,0,0,1,2.9,3.14Zm15.42.24H25.47v-1.6H29c.1-.28.18-.56.28-.86H26.77V40.51h3c.14-.46.26-.92.36-1.34l2.3.24c-.1.36-.22.72-.32,1.1h4.3v2.4h2.2Zm-6.5,10.36v-1.2H25.59V52.05h2.08v-.92H26.15v-1.6h6v-.66H27V45.15h10v3.72h-2.6v.66h3.6v1.6h-3.6v.92h4.14v1.62H34.35v1.2Zm-3-7.38h5.48v-1H29.15Zm3,4.56v-.92H29.83v.92Zm-.76-9.14h2.86v-.86H31.63Z"/><path class="cls-1" d="M43,51.22a18.49,18.49,0,0,1-1.2,5.16,11.71,11.71,0,0,0-1.82-.86A14.55,14.55,0,0,0,41,50.87Zm15.56-8.66s0,.8,0,1.1c-.26,8.76-.54,11.92-1.38,13a2.48,2.48,0,0,1-1.92,1.1,19.08,19.08,0,0,1-3.12.06,5.69,5.69,0,0,0-.8-2.4c1.26.12,2.4.12,2.94.12a1,1,0,0,0,.84-.34c.6-.62.9-3.54,1.12-10.36H50.67A16.46,16.46,0,0,1,49,47.39a15.34,15.34,0,0,0-1.88-1.32,15.93,15.93,0,0,1,1.56,3.74l-1.8.84a10.91,10.91,0,0,0-.28-1.08l-1.14.08v8.22h-2.1V49.81l-3,.2-.2-2.08,1.48-.06c.3-.38.62-.8.92-1.24a18.84,18.84,0,0,0-2.4-2.74l1.12-1.64.48.42a24,24,0,0,0,1.46-3.48l2.1.74c-.72,1.38-1.54,2.92-2.26,4,.26.28.5.58.7.84a31.35,31.35,0,0,0,1.84-3.28l2,.84a64.38,64.38,0,0,1-3.82,5.42l2-.08c-.22-.48-.46-1-.7-1.38l1.68-.74.14.24a15.93,15.93,0,0,0,3.3-6.66l2.44.52a22.92,22.92,0,0,1-1,2.86Zm-11.3,8.2a22.81,22.81,0,0,1,1.3,3.76l-1.88.66a20.37,20.37,0,0,0-1.18-3.86Zm4.68,2a18.9,18.9,0,0,0-2.44-4.62l1.9-1A18.81,18.81,0,0,1,54,51.7Z"/><path class="cls-1" d="M75.79,52.07c-.76,1.1-1.54,2.32-2.24,3.16h4.52v2H61.15v-2H65A13.75,13.75,0,0,0,63.39,52l1.82-.78H62.15v-2h6.08v-2H64.55v-1a25.55,25.55,0,0,1-3,1.86,9.33,9.33,0,0,0-1.48-1.92,21.33,21.33,0,0,0,8.08-7.06h2.46a20.44,20.44,0,0,0,8.54,6.82,11.17,11.17,0,0,0-1.58,2.14,25.33,25.33,0,0,1-3-1.9v1H70.73v2h6.16v2H70.73v4h2.18l-1.3-.54a20.77,20.77,0,0,0,1.9-3.46Zm-10.46-.84a13.51,13.51,0,0,1,1.84,3.3l-1.64.7h2.7v-4Zm7.86-6.1a21.34,21.34,0,0,1-3.68-3.7A20.87,20.87,0,0,1,66,45.13Z"/><line class="cls-2" x1="1.41" y1="1.41" x2="97.91" y2="97.91"/><line class="cls-2" x1="97.91" y1="1.41" x2="1.41" y2="97.91"/></g></g></svg>