<svg xmlns="http://www.w3.org/2000/svg" viewBox="0 0 81.33 81.33"><defs><style>.cls-1{fill:#1e4a99;}</style></defs><title>ic_longtime</title><g id="レイヤー_2" data-name="レイヤー 2"><g id="デザイン"><path class="cls-1" d="M62.09,0H19.23A19.25,19.25,0,0,0,0,19.23V62.09A19.26,19.26,0,0,0,19.23,81.33H62.09A19.26,19.26,0,0,0,81.33,62.09V19.23A19.25,19.25,0,0,0,62.09,0ZM5.73,19.23A13.55,13.55,0,0,1,19.23,5.73H62.09A13.54,13.54,0,0,1,75.6,19.23V62.09A13.54,13.54,0,0,1,62.09,75.6H19.23A13.55,13.55,0,0,1,5.73,62.09Z"/><path class="cls-1" d="M29,42.75A33.66,33.66,0,0,1,25.33,45,13.23,13.23,0,0,0,30,46.73a10.56,10.56,0,0,0-1.5,2.14,11.75,11.75,0,0,1-8.84-7.2h-2.3v4.24l4.32-.64.1,2.1c-3.06.5-6.36,1-8.78,1.36l-.54-2.18c.72-.08,1.54-.2,2.44-.3V41.67h-3.3v-2.1h3.32V30.85H27.53v1.94H17.35v1.06H27v1.84H17.35v1H27v1.84H17.35v1H29.61v2.1H27.47Zm-6.88-1.08a9.51,9.51,0,0,0,1.58,2.08,28.18,28.18,0,0,0,3.06-2.08Z"/><path class="cls-1" d="M35.95,44.91a14.08,14.08,0,0,1-3,4,13.37,13.37,0,0,0-1.9-1.42,9.26,9.26,0,0,0,2.64-3.24Zm5.12-.8H31.24V42H33V34.61H31.48V32.53H33V30.41h2.14v2.12h2.48V30.41h2.18v2.12h1.36v2.08H39.85V42h1.22Zm-5.88-9.5v1.16h2.48V34.61Zm0,4.24h2.48V37.59H35.19Zm0,3.18h2.48V40.67H35.19Zm14.1,4.18c0,1.18-.22,1.8-.92,2.18a6.87,6.87,0,0,1-3.2.42,8.61,8.61,0,0,0-.68-2.26c.86.06,1.82,0,2.1,0s.4-.1.4-.42V42.23h-3a16.42,16.42,0,0,1-1.8,6.66,6.86,6.86,0,0,0-1.88-1.34c.06-.12.14-.22.2-.34l-1.66.94a19.89,19.89,0,0,0-2.14-3l1.8-1a21.8,21.8,0,0,1,2.16,2.72c1.16-2.5,1.26-5.88,1.26-8.48V31.05h7.4ZM47,40.11V37.65H44.11v.74c0,.52,0,1.1,0,1.72Zm-2.88-6.9v2.34H47V33.21Z"/><path class="cls-1" d="M57.79,32H62v3.44h-1v1.52h-3.2v.84h2.92v1.58H57.75v.86h4V42H51.48V40.19h4.08v-.86h-3V37.75h3v-.84H52.4V35.39h-1V32h4.08V30.29h2.28ZM52.54,42.69h8.38v5.94H58.67V48h-4v.88H52.54Zm7.24-8.94H53.53v1.48h2V34.15h2.18v1.08h2Zm-5.1,10.72v1.7h4v-1.7Zm10.4-1H62.83V32.29h2.26Zm4.18-12.94V46c0,1.32-.24,2-1,2.36a8.79,8.79,0,0,1-3.66.48,9.75,9.75,0,0,0-.78-2.46c1.16.06,2.3,0,2.7,0s.48-.12.48-.44V30.53Z"/></g></g></svg>