<svg xmlns="http://www.w3.org/2000/svg" viewBox="0 0 70.9 39.58"><defs><style>.cls-1{fill:#fff;}</style></defs><title>ic_no1</title><g id="レイヤー_2" data-name="レイヤー 2"><g id="デザイン"><path class="cls-1" d="M0,10.28l4,0L9.86,20.66l2,4.24H12c-.24-2-.56-4.65-.58-6.89l-.09-7.85,3.73,0,.22,19.7-4,0L5.48,19.38l-2-4.21H3.3c.21,2.13.53,4.6.56,6.86l.09,7.91L.22,30Z"/><path class="cls-1" d="M18.82,22.35c-.06-5,3.35-7.89,7.07-7.93s7.19,2.79,7.25,7.77S29.8,30,26.07,30.07,18.88,27.27,18.82,22.35Zm10.33-.12c0-2.82-1.2-4.65-3.22-4.62s-3.15,1.87-3.12,4.7S24,26.9,26,26.87,29.18,25,29.15,22.23Z"/><path class="cls-1" d="M35.94,27.4a2.44,2.44,0,1,1,2.45,2.53A2.45,2.45,0,0,1,35.94,27.4Z"/><path class="cls-1" d="M47.14,33.24l8.46-.09L55.32,8.23l-7.13.08-.05-4.84A25.55,25.55,0,0,0,57.25.06L63.06,0l.37,33.06,7.4-.08.07,6.34-23.69.27Z"/></g></g></svg>