<svg xmlns="http://www.w3.org/2000/svg" viewBox="0 0 53.36 53.36"><defs><style>.cls-1{fill:#1e4a99;}</style></defs><title>ic_option</title><g id="レイヤー_2" data-name="レイヤー 2"><g id="デザイン"><path class="cls-1" d="M40.74,0H12.62A12.63,12.63,0,0,0,0,12.62V40.74A12.64,12.64,0,0,0,12.62,53.36H40.74A12.64,12.64,0,0,0,53.36,40.74V12.62A12.63,12.63,0,0,0,40.74,0Zm-37,12.62a8.89,8.89,0,0,1,8.86-8.86H40.74a8.88,8.88,0,0,1,8.86,8.86V40.74a8.89,8.89,0,0,1-8.86,8.86H12.62a8.89,8.89,0,0,1-8.86-8.86Z"/><path class="cls-1" d="M9.33,26.94a3,3,0,1,1,5.92,0,3,3,0,1,1-5.92,0Zm4.27,0c0-1.17-.47-1.93-1.31-1.93S11,25.78,11,26.94s.47,1.9,1.31,1.9S13.6,28.1,13.6,26.94Z"/><path class="cls-1" d="M16.6,23.85h1.32l.11.64h0a2.93,2.93,0,0,1,1.82-.79c1.52,0,2.42,1.24,2.42,3.14,0,2.11-1.27,3.33-2.62,3.33a2.29,2.29,0,0,1-1.53-.67l0,1v1.87H16.6Zm4,3c0-1.18-.37-1.83-1.22-1.83a1.74,1.74,0,0,0-1.22.64v2.71a1.72,1.72,0,0,0,1.12.46C20.08,28.83,20.65,28.2,20.65,26.85Z"/><path class="cls-1" d="M23.61,27.86V25.13h-.87v-1.2l.95-.08.19-1.65h1.35v1.65h1.52v1.28H25.22v2.73c0,.7.29,1,.84,1a1.79,1.79,0,0,0,.61-.13l.26,1.18a4,4,0,0,1-1.3.23C24.17,30.17,23.61,29.24,23.61,27.86Z"/><path class="cls-1" d="M27.84,22a1,1,0,0,1,1.93,0,1,1,0,0,1-1.93,0ZM28,23.85H29.6V30H28Z"/><path class="cls-1" d="M31,26.94a3,3,0,1,1,5.92,0,3,3,0,1,1-5.92,0Zm4.27,0c0-1.17-.47-1.93-1.31-1.93s-1.31.76-1.31,1.93.47,1.9,1.31,1.9S35.22,28.1,35.22,26.94Z"/><path class="cls-1" d="M38.23,23.85h1.32l.11.81h0a2.84,2.84,0,0,1,2-1c1.33,0,1.9.92,1.9,2.48V30H42V26.37c0-.95-.26-1.29-.87-1.29a1.77,1.77,0,0,0-1.29.69V30H38.23Z"/></g></g></svg>