<svg xmlns="http://www.w3.org/2000/svg" viewBox="0 0 81.33 81.33"><defs><style>.cls-1{fill:#1e4a99;}</style></defs><title>ic_oneday</title><g id="レイヤー_2" data-name="レイヤー 2"><g id="デザイン"><path class="cls-1" d="M62.09,0H19.23A19.25,19.25,0,0,0,0,19.23V62.09A19.26,19.26,0,0,0,19.23,81.33H62.09A19.26,19.26,0,0,0,81.33,62.09V19.23A19.25,19.25,0,0,0,62.09,0ZM5.73,19.23A13.55,13.55,0,0,1,19.23,5.73H62.09A13.54,13.54,0,0,1,75.6,19.23V62.09A13.54,13.54,0,0,1,62.09,75.6H19.23A13.55,13.55,0,0,1,5.73,62.09Z"/><path class="cls-1" d="M26.33,44.73h3.18V35.37H26.84V33.55a9.61,9.61,0,0,0,3.44-1.24h2.18V44.73h2.78v2.38h-8.9Z"/><path class="cls-1" d="M53.48,31.37v17.2H50.92V47.31H42v1.3H39.57V31.37ZM42,33.77v4.3h8.88v-4.3Zm8.88,11.14V40.43H42v4.48Z"/></g></g></svg>