<svg xmlns="http://www.w3.org/2000/svg" viewBox="0 0 134.35 85.81"><defs><style>.cls-1{fill:#1e4a99;}</style></defs><title>ic_pcset</title><g id="レイヤー_2" data-name="レイヤー 2"><g id="デザイン"><path class="cls-1" d="M70.06,21.35H19.89A4.62,4.62,0,0,0,15.27,26V62.43A4.62,4.62,0,0,0,19.89,67H40.58c-.52,2.33-1.76,5.42-3.21,5.42a3.47,3.47,0,0,0-3.47,3.47v2.41H56V75.93a3.47,3.47,0,0,0-3.47-3.47c-1.45,0-2.68-3.08-3.2-5.42H70.06a4.62,4.62,0,0,0,4.61-4.61V26A4.62,4.62,0,0,0,70.06,21.35Zm.11,34.13H19.78V26a.11.11,0,0,1,.11-.11H70.06a.11.11,0,0,1,.11.11Z"/><path class="cls-1" d="M109.34,5.94H84.74a5.34,5.34,0,0,0-5.34,5.34V73a5.34,5.34,0,0,0,5.34,5.34h24.59A5.34,5.34,0,0,0,114.67,73V11.28A5.34,5.34,0,0,0,109.34,5.94Zm-.23,66.82H85v-32H109.1Zm0-36.2H85V11.51H109.1Z"/><path class="cls-1" d="M97,60.7a7,7,0,1,0-7-7A7,7,0,0,0,97,60.7Zm0-10.21a3.25,3.25,0,1,1-3.25,3.25A3.25,3.25,0,0,1,97,50.49Z"/><rect class="cls-1" x="89.62" y="18.01" width="14.85" height="4.18"/><rect class="cls-1" x="89.62" y="24.97" width="14.85" height="4.18"/><path class="cls-1" d="M16.65,16c-7,1.38-7.61,2.49-8.32,16C7.61,18.44,7,17.33,0,16c7-1.38,7.61-2.49,8.32-16C9,13.46,9.62,14.58,16.65,16Z"/><path class="cls-1" d="M134.35,69.85c-7,1.38-7.61,2.49-8.32,16-.72-13.46-1.3-14.58-8.32-16,7-1.38,7.61-2.49,8.32-16C126.74,67.36,127.32,68.48,134.35,69.85Z"/></g></g></svg>