<?xml version="1.0" encoding="utf-8"?>
<!-- Generator: Adobe Illustrator 21.1.0, SVG Export Plug-In . SVG Version: 6.00 Build 0)  -->
<svg version="1.1" id="レイヤー_1" xmlns="http://www.w3.org/2000/svg" xmlns:xlink="http://www.w3.org/1999/xlink" x="0px"
	 y="0px" viewBox="0 0 81.3 81.3" style="enable-background:new 0 0 81.3 81.3;" xml:space="preserve">
<style type="text/css">
	.st0{fill:#1E4A99;}
</style>
<title>ic_syokyaku</title>
<g id="レイヤー_2">
	<g id="デザイン">
		<path class="st0" d="M62.1,0H19.2C8.6,0,0,8.6,0,19.2v42.9c0,10.6,8.6,19.2,19.2,19.2h42.9c10.6,0,19.2-8.6,19.2-19.2V19.2
			C81.3,8.6,72.7,0,62.1,0z M5.7,19.2c0-7.4,6.1-13.5,13.5-13.5h42.9c7.5,0,13.5,6,13.5,13.5v42.9c0,7.5-6.1,13.5-13.5,13.5H19.2
			c-7.4,0-13.5-6.1-13.5-13.5V19.2z"/>
	</g>
</g>
<g>
	<g>
		<path class="st0" d="M24.4,27.4c-0.7-0.6-2.1-1.5-3.2-2l1.3-1.8c1.1,0.4,2.6,1.2,3.3,1.8L24.4,27.4z M25.8,29.9
			c-0.7,2.2-1.5,4.6-2.4,6.6l-2.2-1.2c0.8-1.6,1.8-4.2,2.6-6.6L25.8,29.9z M25.4,22.1c-0.7-0.7-2.1-1.6-3.2-2.1l1.3-1.8
			c1.1,0.5,2.6,1.3,3.3,1.9L25.4,22.1z M39.6,24.9c-0.6,2.6-1.5,4.9-2.6,6.9c0.3,1.4,0.7,2.2,1,2.3c0.3,0,0.5-1,0.6-2.8
			c0.4,0.5,1.3,1,1.7,1.2c-0.5,3.6-1.5,4.4-2.3,4.4c-1.1,0-1.9-1-2.6-2.8c-0.9,1-1.8,1.9-2.9,2.7c-0.3-0.4-1.1-1.2-1.6-1.5
			c1.5-0.9,2.8-2.2,3.8-3.7c-0.4-2.2-0.7-5.1-0.9-8.3h-5.3v3.5c0,3-0.3,7.4-2,10.2c-0.4-0.4-1.3-1-1.8-1.2c1.5-2.6,1.7-6.3,1.7-9
			v-5.6h7.2c0-0.9-0.1-1.8-0.1-2.7h2.2c0,0.9,0,1.8,0.1,2.7h2.3c-0.6-0.6-1.4-1.2-2.2-1.7l1.3-1.2c0.9,0.5,2,1.3,2.6,1.9l-1,1h0.8
			v2.1H36c0.1,1.9,0.2,3.6,0.4,5.1c0.5-1.2,0.8-2.4,1.1-3.8L39.6,24.9z M30.7,32.8v1.1h-1.6v-6.7h4.5v5.6H30.7z M33.5,26.1h-4.3
			v-1.7h4.3V26.1z M30.7,28.9V31h1.4v-2.1H30.7z"/>
		<path class="st0" d="M47.4,18.9c-0.5,1.3-1.1,2.7-1.8,3.9v14h-2.2V26.4c-0.4,0.5-0.8,1-1.2,1.5c-0.2-0.6-0.8-1.8-1.2-2.4
			c1.7-1.7,3.4-4.5,4.3-7.3L47.4,18.9z M56.1,22.3v2.5h3.4v11.5h-2.3v-1h-7.9v1.1h-2.2V24.8h3.2v-2.5h-3.4v-2.1h12.7v2.1H56.1z
			 M49.3,33.2h1.2v-6.4h-1.2V33.2z M52.6,26.8v6.4h1.3v-6.4H52.6z M53.9,22.3h-1.3v2.5h1.3V22.3z M57.2,26.8h-1.3v6.4h1.3V26.8z"/>
		<path class="st0" d="M26.7,51.1c-0.3,0.7-0.7,1.3-1,2v13.7h-2.3V56.6c-0.4,0.6-0.9,1.1-1.4,1.6c-0.2-0.6-0.9-1.9-1.3-2.5
			c1.8-1.8,3.5-4.6,4.5-7.5l2.3,0.7c-0.2,0.6-0.5,1.2-0.8,1.8H29c-0.2-0.6-0.6-1.3-1-1.8l1.8-0.6c0.5,0.7,1,1.6,1.2,2.2l-0.6,0.2
			h1.6v-2.5h2.3v2.5H36l-0.5-0.2c0.4-0.6,0.9-1.6,1.1-2.3l2.3,0.6c-0.5,0.7-1,1.3-1.4,1.8h2.1v3.3h-1.9v2.3h-9.1v-2.3h-1.9V51.1z
			 M35.9,63.8c1.6,0.5,3.2,1.1,4.2,1.7l-1.8,1.4c-1-0.6-2.8-1.4-4.5-1.9l1.2-1.1H31l1.4,1c-1.4,0.9-3.3,1.6-5,2
			c-0.3-0.5-0.9-1.2-1.3-1.6c1.5-0.3,3.1-0.9,4.3-1.5h-2.6v-6.7h11v6.7H35.9z M28.7,52.4v0.8h8.8v-0.8H28.7z M29.9,59h6.6v-0.7h-6.6
			V59z M29.9,60.8h6.6v-0.7h-6.6V60.8z M29.9,62.6h6.6v-0.7h-6.6V62.6z M35.5,54.4h-4.9v0.8h4.9V54.4z"/>
		<path class="st0" d="M49,59.1c1,1.8,2.2,4.1,2.6,5.6l-2.1,0.9c-0.1-0.5-0.3-1-0.5-1.6l-7.4,1l-0.3-2.3l1.3-0.1
			c0.5-1.4,1.1-3.1,1.4-4.7h-2.7v-2.2h3.9v-2.5h-3.3V51h3.3v-2.8h2.3V51h3.1v2.2h-3.1v2.5h3.8v2.2h-4.6c-0.5,1.5-1.1,3.1-1.7,4.4
			l3.2-0.3c-0.4-0.7-0.7-1.5-1.1-2.1L49,59.1z M59.1,61.1c0,1.1-0.2,1.8-0.9,2.2c-0.7,0.4-1.5,0.5-2.7,0.5c-0.1-0.7-0.4-1.8-0.8-2.5
			c0.7,0,1.5,0,1.7,0c0.2,0,0.3-0.1,0.3-0.3v-9.4h-2.6v15.3h-2.3V49.4h7.3V61.1z"/>
	</g>
</g>
</svg>
